/* XPM */
static char *_c94eafe71344beec63b23190563d346qWMDd0B01T1TPj4I[] = {
/* columns rows colors chars-per-pixel */
"96 64 239 2 ",
"   c #351A17",
".  c #39221E",
"X  c #3B2824",
"o  c #3C312B",
"O  c #461D1C",
"+  c #44221C",
"@  c #4C2523",
"#  c #452B26",
"$  c #4C2924",
"%  c #442C2A",
"&  c #4B2C2B",
"*  c #452424",
"=  c #532D2B",
"-  c #5B2E2B",
";  c #562A25",
":  c #4A322D",
">  c #45322D",
",  c #53322D",
"<  c #5B342C",
"1  c #58392F",
"2  c #492D31",
"3  c #592F32",
"4  c #4D3433",
"5  c #4D3A35",
"6  c #4D3A3A",
"7  c #463333",
"8  c #543433",
"9  c #5C3534",
"0  c #533935",
"q  c #5B3B36",
"w  c #553539",
"e  c #5A3639",
"r  c #543C3B",
"t  c #5C3C3B",
"y  c #63332E",
"u  c #6C352C",
"i  c #633534",
"p  c #633A36",
"a  c #6B3B35",
"s  c #633C3B",
"d  c #6B3D3B",
"f  c #633639",
"g  c #723E3C",
"h  c #793B39",
"j  c #71342D",
"k  c #5C423D",
"l  c #55423D",
"z  c #4D4039",
"x  c #63423D",
"c  c #6B423D",
"v  c #67463B",
"b  c #73423D",
"n  c #7A463D",
"m  c #5B3D42",
"M  c #573D43",
"N  c #653E41",
"B  c #6B3E42",
"V  c #733F42",
"C  c #554342",
"Z  c #5D4343",
"A  c #5D4A44",
"S  c #5D4A4A",
"D  c #5A4548",
"F  c #5E554E",
"G  c #644443",
"H  c #6C4443",
"J  c #644945",
"K  c #6B4A45",
"L  c #644649",
"P  c #6B4649",
"I  c #644B4B",
"U  c #6C4C4B",
"Y  c #734444",
"T  c #7A4543",
"R  c #734A45",
"E  c #7B4B45",
"W  c #734649",
"Q  c #7A4649",
"!  c #734C4C",
"~  c #7B4D4B",
"^  c #6C524D",
"/  c #65514A",
"(  c #73524D",
")  c #7B524D",
"_  c #795549",
"`  c #6C4D51",
"'  c #644C50",
"]  c #754E51",
"[  c #7A4E51",
"{  c #6D5353",
"}  c #6D5A54",
"|  c #695557",
" . c #745353",
".. c #7B5453",
"X. c #745955",
"o. c #7C5A55",
"O. c #74555A",
"+. c #7C5659",
"@. c #755B5A",
"#. c #7B5C5B",
"$. c #7C625D",
"%. c #74615C",
"&. c #7C5D62",
"*. c #755D62",
"=. c #6E5B61",
"-. c #7D6362",
";. c #7A6865",
":. c #853C36",
">. c #86443C",
",. c #984A3B",
"<. c #89503F",
"1. c #AB4C3B",
"2. c #824542",
"3. c #834C45",
"4. c #8B4B44",
"5. c #824C4B",
"6. c #8A4D4B",
"7. c #8C4642",
"8. c #964A43",
"9. c #84524C",
"0. c #8C544D",
"q. c #875449",
"w. c #93544C",
"e. c #995448",
"r. c #864E51",
"t. c #835453",
"y. c #8B5452",
"u. c #835955",
"i. c #8B5A55",
"p. c #845C5B",
"a. c #8B5C5B",
"s. c #835659",
"d. c #935653",
"f. c #935C54",
"g. c #9B5C55",
"h. c #925D5A",
"j. c #9A5A56",
"k. c #A95548",
"l. c #B45645",
"z. c #A55C58",
"x. c #84625D",
"c. c #8B625C",
"v. c #806A5F",
"b. c #94625C",
"n. c #9C645C",
"m. c #986459",
"M. c #A76359",
"N. c #B16A58",
"B. c #835E61",
"V. c #8A5E61",
"C. c #935F61",
"Z. c #836463",
"A. c #8B6463",
"S. c #846965",
"D. c #8B6A66",
"F. c #8B6568",
"G. c #846C6A",
"H. c #8B6C6B",
"J. c #846569",
"K. c #946564",
"L. c #926A65",
"P. c #936D6B",
"I. c #9B6E6B",
"U. c #986866",
"Y. c #86716D",
"T. c #8C726D",
"R. c #8B7268",
"E. c #93736D",
"W. c #9A736D",
"Q. c #99756A",
"!. c #8B6E72",
"~. c #976E73",
"^. c #8C7472",
"/. c #8C7A75",
"(. c #877675",
"). c #937472",
"_. c #9B7573",
"`. c #947A75",
"'. c #9B7A75",
"]. c #957C7A",
"[. c #9B7C7B",
"{. c #967679",
"}. c #A46963",
"|. c #A2756E",
" X c #A37A74",
".X c #A37C7B",
"XX c #A77975",
"oX c #94827D",
"OX c #9C827D",
"+X c #9C8378",
"@X c #A3837D",
"#X c #A9857C",
"$X c #B2857F",
"%X c #9B7E81",
"&X c #A57E81",
"*X c #9C8482",
"=X c #9C8984",
"-X c #9A8886",
";X c #968B86",
":X c #A38582",
">X c #AA8381",
",X c #A48A85",
"<X c #AB8B85",
"1X c #A58D8A",
"2X c #AA8D8B",
"3X c #A7868A",
"4X c #B48B87",
"5X c #AC928D",
"6X c #A6928D",
"7X c #B2938D",
"8X c #BC968B",
"9X c #AD9492",
"0X c #AB9A94",
"qX c #AB9998",
"wX c #B39593",
"eX c #B59994",
"rX c #B49C9A",
"tX c #BA9D9A",
"yX c #B89997",
"uX c #A98C91",
"iX c #BCA19D",
"pX c #B4A29C",
"aX c #AFA19D",
"sX c #BCA4A2",
"dX c #BBA9A5",
"fX c #C59B95",
"gX c #C3908D",
"hX c #C5A49E",
"jX c #D1A89B",
"kX c #C3AAA5",
"lX c #CBAEAA",
"zX c #C5A9A6",
"xX c #C9B1AD",
"cX c #D2B3AD",
"vX c #CCB5B3",
"bX c #D3B7B5",
"nX c #DEC3BA",
"mX c #DCC6C2",
"MX c #E2C6C3",
/* pixels */
"a u y y i f N s U w 6X`.J o.s.) ) u.) o.@.$.;.z O.O.@.X. .! ) d 6.d.) E v K ( U U t U } `.OXN p.A.o.p.Z.p.F.] W W t.u.( c c R E ~ u.c K K x.2X^ -.S.Z.X.%.^ X.X.I I L Z 6 C r l Z Z 4 X o > F z ",
"+ @ = O O @     # X /.@.# 8 8 H c x x v # Z @.> 6 0 t : , t x s g Y a K x , G 0 8 I Z 6 J.*X2 G t L G t k , q q = 9 , $ < a < $ $ = s : # J T.  k : # 0 0 r J 0 t Z L r 5 0 4 : A q k J r : X.A ",
"H.<XtXwX=XoX6XqX-XoXdX-X/.*X/.^.S.G.T.^.OX5XkX6X=X6X=XOX,X<X5X#X#X@X+Xx.G.`.`.Y.;.(.G.-.9XrX*.@.G.Z.} %.G.G.;.$.J.S.R.R.R.R.D.v.S.F.D.Z.x.5XiX].T.G.G.G.R.].].3X3X:XOX`.,X+XOXrX@XOX7X,X+X`.D.v.",
"X. .@.} oXqX;X;X-X;X;X].oXoXoXY.,XiXE.<XyXzX2X3X].`.6XiXlX).P.'.'.Q.#XW._.OXOXdX6XG./.^.%X!.Z.J.S.G.].T.R.+XS.G.^.Y.+XoXR.+XeX5Xp.D.).D.F.P.P.T.X.l -.G.^  .G ] G s e q k 1 J '.1 k q G e = $ , ",
"U K k # J /.4 L L ` ]  .L w J l X.`.e W B V B ! !  .K ..E.$ ) 9.n >.b >.n a y L.R p ! s.! ! ! p.o. .{.+.f H 9 9 c + , v x / E.+X# q H H ! B P G w # J ^ t X.! Y W [ ( ! K J ^ @X, ! s p N i < s ",
"x ( k > ^ =XL { ` O.+.O.U { @.{ @.;X(  .s.V W W s s q U .X! u.i.b.m.>.>.6.q.d |._ R u.c.V.c.Z.Z.@. .%XuXW ..W s...( !  .%.( ^.^.U #.P ! Q [ B U  .@.( G.G ) Y R W H G (  .U J x.# = x 9 = = = + ",
"# X > . A oX5 C Z D Z r 5 5 > o F %.X % w m 2 4 4 5 > / `.# , 1 q < 1 < < ; + S.( # & # : & % X M 2 M !.w m 8 8 8 q t I / 6 ;.(.X > 4 q L e q G k 5 } OX^ K G U ! q q J / A A X.4 k k ^ U k / X.",
"oX:X5XpXsXbX6XrXtX9X=XqXpX-X(.oX;X-X;.*X-X9X*X6X0X9X1X0XnX6X@X<X+X#X#X#X+X@X<XnXbXeX,X[.T.Z.{ *./.J.%X!.L Z.:X:X{.OX{.`.(.J.dXxXrXoX[.,X[.3X:XE.:XOXrX5X[.7X$X#X_.H.D.D.x.x.E.'.Q.'.D.H.E.tX/.$.",
"....s.V.[ t.! [ !  .w ).E. .x.S.@.{ O.@.@.@.2X`.#.S.S.P.p.K ! t.c.c.Q.'._.I.W.W.I.P._.[.cXyX[ +.o...) ) c.c.c.u.9._ ) E c R ) ..s.)  .u....X.Xs.p.! Y c R T Y Y T 9.y.E 3.3.9.5.3.3.n d i o.v v ",
"i i i i d V W V B s ,  .Z.G U ..+.+.!  .^ L #.8 J N ! H R ~ R Y E 9.b p c T b y V g Y s H  XV s.c.c E u.q.n q.3.n n 3.n u < a.i.s.a.t.Y Y L.#X~ K.i.t.5.5.q.E q.f.d.0.w.6.g.j.w.j.d.0.3.n E u._ ",
"H c Q Q V r.Y [ ! ] G #.[.{ p.! B N U  .U Z S.X.! F.Z...a.a.~ t.5.z.q.E y.9.0.h.d.E i.) ) #Xd Y s.u.t.~ c.i.y.m.m.b.y.~ ~ t.a.A.a.L.A...P a._.s.t.y.y.9.a.t.b a h q.0.0.q.f.d.f.d.d.q.E R c < J ",
"$ $ ; @ = 3 - ,       J ^   * * * w 8 > 4 > Z.r Z G s s = p p p y - - a < < b a a R p x s  Xi @ + * $ + @ , f ; ; 9 - @ 8 N q H Y 9 f 9 * c.A.= = ; p y - - < - ; ; ; - a g g b g y p i $ x.%.G ",
"Z.S.E.OXOX$.S.Y.oX(.;.sX0XY./.;.%.S } } / ;.0X| X.%.;.G.@.Z. . . .&.J.J.T.^.Z.H.Z.Z.#.$.H.hX<X_.7X:X<X5X6X5X1X,X,XOXOXOX>XT.[.S.o.D.'._.E.3X).Z.P.F.D.W._.E.x.W.|.L.@X_.P._.2XW.p.@X).F.S.`.`.Y.",
"H.T.T.T.T.vX0XoX;XoXoX]./.oX(.;./.qXqXqX-X*XOX,X,XeX,X,XkX-.S.`.;.!.`.!.G.oX].6X6XJ  .U  .+.#.s.p.( #XyXT.T.%.%./ A } } @. .{.7X .X.o.Z.A...]  . .G $.7Xx.H.D.A.a.s.x.( J X.R.^ $. .J L U L I ` ",
"3 8 e 8   2X^ G J J P P L J U I C ;Xo 8 e e N 9 t q :  .@X, U U ! +.[ B.c.p.! D.E.q R ..Y t.Q ! ~ d I..XK a.x.x.@.( (  .X.X.x D.L Z...[ K.s.[ .. .G U OXU p.! Y ~ ~ H x q : K X.#.J s.o.! [ +.[ ",
"s H s x : ).$.L  . .! ] s.B.{ L A -XI U ! [ ~ ..[ ( o.X.[.J  .F.~.K.V. XP.P.H.).H.! u.c Y ) p.a.) t.a.XXp.A.A.A.F.D.x.A.D.x.A.[.^ +. .p.s.V.+.W ! (  .Z.! p.[ ~ ! 9.Q c R v ( q ^ ! t K P d N H ",
"* # # # . *X@.6 L G H d p I l > } aX7 8 G t e = e t Z r ].% A / ! G H U K r 0 J I X # # # , L k 8 * q S.Z L k x Z 8 G q k 0 x 6XX.k k x G G J K J L T.,Xk ! J ..! ! K ..^ k +XS.$.$.( U k l ^ $.",
"J.H.~.&X3XxX3XO.F.P.).~.).P.[.*XdXMX9X3X%X,X].[.E.^.^.`.xXdX9X1X[.R.D.Z.S.S.-.^.zX9X`.OX^.G.D.`.:X2X2XwX].*X,X[.@X@XW.L.x._.D.5X9XOXoX,XOXwX,X^.:X2XwX5XH.@X.X_.A.c.P.'.Q._.Q.<X+XE.@XOXv.^.0X=X",
"Z.P.L.K.~.~._.U._._.D.<X_.V.p.A.u.C.~.I.~.@XlX).Z.H.S.D.Z.#.+.A.Z.x.D.o.^  .U -.#.Z.P.H.S.hX[.E.P.'.X.E..X'.W.W._.I.|.I.i.h.) R 8 G U U r S.} 4 J U H G G ! P W H Y ~ R Y a.Y c ) c H x x ^ @.4 ",
"G H V B V V V Q [ o.# %.P d V Q T i i 3 f 8 >XJ J U s G H B W B P H J H L q $ 8 ]  .J U ! .Xs.a.R c.! a.u.u.i.b.h.i.d.m.b.f.K.a.a.o.s.F.X.E.X.8 J K ! p.p.s...! ~ Y ~ ) ) ) ) Q Y R Y H K J { 5 ",
"Y b Q Q r.Q r.r.) o.0 A  .d ~ r.r.6.5.t.t.! _.o. .^ o...V.V.a.t.! U P ) #.! L U G ! o.p.) _.c.L.I.h.K.|.b.a.U.U.n.m.9.q.y.u.o.u.t.t.a.E.x.+Xc.c ) ) t.9...) ! c R x ~ ! ) R c t.~ ! ~ ] U J @.: ",
"K c c n [ Y [ Q _ / . %.k ! H b d d d i p q o.k k t t 9 p e f s H J t k G q t x  .# 8 H 9 P.! H b f d f d a a n R n c.9.) R o.U ! s.s.u._ $XQ.Q 9.9.5.B H R ! G G G v x q s s 9 p p d J q k } . ",
"x.H.x.%.%.G.Z.J.v.$.;.dXhXeX4X#X_.@XQ.R.@XOXkXwX].5X1XoX1XrXiXdXxXzXpXrXeX9X0XwXyXtX7X:X@XlXzXtXyX3X].9XyXwX'.<X<X#XhXyXyX9XzXxXzXiXyX7X.X4X4X&X>X[..XzX2X2XwX1X6X@X+X:XOX@X,X<XP.F.A.H.).:X=X$.",
"^  .J k %.0XX.} $.R.%._ c._ 9.I.x.pX+X/ $.Z.#.Z.Z.%.S.$.oX=X} } | @.@.@.@.$.H.:XlX.X[.D.A.A.b.).H.^.T.,X@.T.p.x.c.c.u.o.B.o.O.1XH.{ ] H V Y T V Y = 9 7X .@.-.&.U L @.J #.X.x W.x q R K s s v K ",
"k s P x r ].G U H d d T 7.6.4.3.v Q.G.q s L ! ] +.U ] ^ -.,XS { U [ N ! ! W [ [ &XQ r.a.a.K.a.K.c.( ..4Xc ) 9.b.m.m.m.m.i.c.q.Q.c.c c E 6.h.6.r.g t.t..Xp...! ] W J +.o.Z. .K >XK ; i v a g d d ",
"U ( ! ..m Z.G U ! 5.5.6.z.8.j.0.R _.X.J ..P ~.A.P ] O.G &.2XO.$.#.] ! p.s.s.a.s.XX~ h.K.C.I.U.U.U.u.u.fXc n _ f.m.m.f.f.f.m.q.Q.c.a Q E t.f.i.9.r.t.~ p.o.R ! p...[ !  .#.p.^ '.R $ i ; y y n g ",
"r G m e 2 G.Z 7 : t p i b j u - O #. .# m t ` G 2 4 8 & T.[.8 Z t 0 l G k t L t @X(  .( +. .G ! ( U L yXx 1 q H n b _ n v x , _ I.) ) _  .K I G U U U {.L  .Z G e q t x l k k v.X.1 x v 1 $ ; < ",
"Z.#.s.B.H.sX1X].oXR.Z.'. X Xc.E.).7XyXE.:X%XG.*X%X/.3X9XcXlX3X@X3X6X5X:X:X+X).).lXeX5X:XuX<X9X5X).{.{.cX%XH.P.F.E.Q.|.#X|.XX|.4XfXXX|. X_.,X5X=X`.T.:X[.p.x.:X.X.X_.F.).@X@X+X@X@X+X@XE.W.@XQ.R.",
"p.t.V Q V B P P G , &.hXs.c.a.u.c.p.B.p.O.U @.6XZ Z U @.p.A.I..X.X X_._._.I.A.P...a.F.o...:XlXp.Z.s. .p.F.V.P.K.K.n.M.M.z.M.j.e.,.h 4.f._ c. X( s.u.Q E 5.t.i.y.h.y.y.t.c.R ) _ ~ ~ ! ..! x yXU ",
"R ! T b W W [ ] ] J r H.p W [ ~ t.~ H ! ] I } oXr { J ..p.! Y ~ s.~ ) a.t.i.a.a.a.s.u.F.+.s.3X! p...~ P A.a.r.5.2.>.4.<.,.,.8.k.,.e.e.m.m.i.|.U.P.U.i.y.g.w.j.z.g.n.f.f.w.0.9.3.5.5.~ t.o.q %X` ",
"K k v v L ! G G L m w ].L H W ! ! [ W ~ { q Z G.^ G.T.x.u.u.a.t.~ ) t.a.~ ~ t...~ a.B.A.! B.3X .c.9.) U s.u.a.b.f.4.w.M.N.N.M.M.,.N.e.w.m.2.9.) L...~ ) q.0.g.f.g.g.w.w.d.j.d.7.6.y.~ s. .` ;.6 ",
"0 x : z l l m t m t D ,X& e N e f N q G G w -.T.8 J L q q c d Y p p q H Y 3 f s H ! ] ! G ).wXG X.) ( ..J v c K E n <.<.w.,.<.u b 0.q.4.a b K.u...( b c c q.b >.0.>.>.>.6.2.T j V Q Q P N 2 | 6 ",
"`.:XH.G.=XiXrXyX3XwXsXsX].*X%X1XaXdXrXsX9XuXrX6X^.`.[.).oX].<X_.&X].[.:X9XyXyX%X[.P.P.{.H.iXyX^.).[.[.>X)._._..X[.P.P.W.A.v.c.<Xc.) ..! ) A._.L.B.P.p.&X.Xp.K.K.P.c..XI.c.) L. XE.'.W.T.{.H.*X%X",
"L P t t ^ T.^ X.X.' ] ]  .+.&.{ 2 -X*.D L Z M S `  .o.X.`.S.U ] ( L  .+.&.B.B.B.{...+.+.#.U #.&.&.U Z.9X+.U Z.Z. . .#.#.U I { 2X#.H R ( !  .] ! p.o.t H.[.U +.P J ! U ] ..q ( D.J ( X.^ J t t L ",
"Y ! s p H F./ X.X. .] o.p.+.+.] | qXO.' L N U  . .+.s.L ^.-.P o.s.s.P.B...+.O.V.P.A._.K.K.s.V.F.J.F.B.&XV.B... .! W +.p.#.&. .&XA.Q ..s.p.s.[ ....P P J.J.D M M e B O.O.] ! ( F...o.U s s G s U ",
"W [ ! H K #.v J ! o. ...] W ]  .' uXP m m w D J ` U  .w J.{ U s.t.a.s.p.&.J.+.J.x.U x.K o.p.p.F.B.P &..X] F.P.p.P.P.F.#...+.` _.+.W ......~ H H s G { @.' 2 o X 2 s e * * q G ).U ( ! G  .L !  .",
"f 8 , q k J z / Z J J k L J { I ' 1X&.{ #.@.^ / O.@.X./ ;X} k G K J G I U A C } Y.J / l I | *.*.*.J -.H.t }  .X.X.( ^ G L ^ J D.J.^  .J v 0 J J U K A ].).Z A l z k k x.X.( +X<Xv K J J L t l L ",
":X)._.,X6XkX<X7XrXtXyXzXiXpXtXsXlXlXkXcXcXlXvXkX9XrXwXzXmXxXfXyXwX5X<XiXiX5XtXcXcXhXiXhXtXrXbXsXsXsXvXiX'.7X@X'.c.E.<X7X<X[.`.yXyX<X:XW.E._.eX<XeX7XW.#X7X8XjX8X$XgXjX$X$XjXfX8XhX7X#XE.H.:X`.@.",
"G q q , < _ H P ! ..H _. .U J ^ u.u.t.i.i.q.c.@Xc ) ) t.....a.r.h.t.9.9.b.b.i.m.m.f.y.i.a.P &Xp.P ..u.u.~ 9.) u.u.i.m.Q.U.u.E ) ) a.a.s.o.D. X..c.E b <.w.e.<.k.N.k.k.e.>.>.<.>.>.E Q U U OXY.7 ",
"x H K p q i Q ~ T i.f A.!  .#.J R q.3.i.b.q.u.L.R a.c.i.A.~ ~ y.n q.f.q.f.n.g.w.w.g.f.0.) 9._.W ) t.9.i.a.b.b.b.i.f.b.i.0.y.f.i.i.b.i.K.a.A.~.Y u.0.4.w.k.l.l.l.l.1.l.l.l.k.k.e.<.0.y.u.( S.*XI ",
"x v s K s c ~ Y ~ t.3 P.! G } U E E y.3.y.t.R c.p u.i.~ ..~ C.r.9.c.i.b.K.g.n.M.n.M.|.U.C.[ O.e ] ~ a.a.U.b.K.K.K.f.f.f.i.y.i.a.c.u.c.a...p.P.H u.y.w.8.k.l.1.l.l.l.1.l.l.k.,.e.4.n 9...U S.Z.I ",
"G J L v U p 9 x x c 9 L.G. .O.^ ..9.R ~ t.a.U >X .N H N 8 x ] V ~ R c Y B d g d d b a ~ W M &.` L N P P P ..~ a.a.a.a.u.[ 9.t.~ R .._ X.K E.<Xp Y E q.>.>.:.,.,.,.,.:.>.:.j j j u - $ < 8 @.^.7 ",
"H.X.-.X.} ^.6X@X:X6X6XkXkXpXiXrXeX5XkXwXeXwX,XdX9X%XwXqXdXaX%X%X~.&X3X[.%XwX{.P.3XF. .O.&.%XuX%X#.;.G.!.OXH.].^.^.T.).H.H.G.F.H..Xs.L.L.E.A.XXA.L.W.W.#XfX$X X|.Q.Q.+XN.#X$X#X_.E.S.Z.H.H.`.OXU ",
"t q Z l # $./.X A I ^ ^ U I U S 6 (.qXL  .| | S D S L ' (.(.' | ] ` ]  .&.&.O./.%X{  .O.` =.=.=.O.*.| %X9X' -. .O.{ +.;.Z.&.&.P.P.f [ ~ Y c c Y R ..x.p.:X .&.B.v.%.} _ %.$.$.9XX.^ @.^ J t l L ",
"N W H  ./ @.S.# U U { ]  .] U U M -X-XM O.O.| { |  .L D | (.O.&.+.V.A.Z.O.*.-.| !.{ #.&.@.&.&.&.;.!.*.%X3X` &.J.#. .&.J.F.B.&.~.L.Y s.Q Q 5.Q T ~ t.[ B.~.&.B.O._ #.O.#.O.@.I %XJ J Z m G w m L ",
"3 e w 4   A oX  t q q t N L P ` M -XJ.4 ' ` L ' L Z L ` ' (.{ p.] +.o.o.#.&.@.G.^.L { Z M L | @.&.&.` %X3XJ O.'  .U ]  .] O.W &._.+ B Y V a V g Q r.B W B.` *.&.+.X.+.@.` #.O.%Xw 7 m L k t w m ",
"J.!.;.=.G.6XpX%.G.^.G.S.Z.@.=.} S qX-XD I m 6 C A l k z C A 0 k w 0 l l C D 7 O.9X' } O.G.;.S 6 A J I %XiXX.$.x.-. .o.+.Z.S.&.F.kX$.$.H.S.S.U X...U U L >X-.-. .+. . .O.' J O.1XY.S Z I I L 4 w ",
"!.G.^.^.$.@.@.-.S.H.).3XrX*X/.;.(.;./.;X/.;./.-XkXkXiXiXdXiXtX<X7XhXyXeX:X].9XuXrXrXlXlXxXaXxX;X} -.^.:X,XQ.v.E.E.D.P.P._.P.#.F.v.E.`.T.].`.,X1XH.).S.).wX5XOX).S..X%XH.3X*X/.;X*X].G.].].`.%X1X",
"N s H R c R R Y R d d H o.& w 7 6 7 M 6 6 Z Z 9X$.k ) _ _ _ _ q.q.0.i.c ) ..! c R ( ( (  .U rX#.] ..a.~ Q T q.d.0.0.0.d.}.2.; 6.a.K.) )  .^ ;.[.J Z.#.s.[ W ..! W N ] ] @.{ L L L N ! +.] G Y.;X",
"P ~ t.! ~ ) t.5.t.y.t.s.H.e L S S { S S O.O.r G.$.U c.u.9.3.3.3.0.q.q.a 9.q.) T 9.) 9._ o.#.%XU B.F.P.K.f.f.n.n.n.M.M.M.}.j.2.q.}.U.U.A.c.X.#.[.` p.p.+.o. ...! ] ! ] ]  .L J U +.] V [ [ { ;.z ",
"d f s s ! U R H 9 ! 9 w S > M 6 L 4 w l w G 8  .P.K ~ R ) ) t.i._ n _ a 9.9.f.h.E n E _ v q +XG ( u.L.u._ _ n b n E n 0.0.b y ~ a.a.p.p.x.^ X.^.8 L ] ` ^ ( o.X.~ [ ..t.~ B ~ ! ] [ i N ] L 6 . ",
" XA.V.p.x.+.Z.Z.Z.Z.X.D.`.@.@.-.+.^ $.%.H.F. ._.'.U s.( ( J ( ! _ $.x.R ) ~ ~ T T T n b x K lXW.A.~ ..K ^ v _ _ ) E _ ) u.u.u.t.[ A.J.&.Z.#.`.{.^ $.o.o._ ^ _ v ( u.~ 6.9.b Y ..W B s L L { @.6 ",
"Q W ..) K R.@XS.).A.F. X&X XP.A.x.wXpX@X).F.#.P.).-.F.Z.*XqXqX1XiXsX9X*X].&X&X:XXXy.9.9.r.|.4X&XW.I.@XiX5X`.5XiXeXwX2X=XoX,X7X'.9X%XJ.&.J.J.*X:XS.'.+X7X#XR.#X#X#X+X|.XX}.C.U..X).R.:XoX*X;XqXaX",
"d d Y c , x.Z.: t p c a g 3.T g , _.K x P ! G J m G D w ;.;.F S C I L ' ' O.O.p..Xd ~ 3.6.d.2.6.5.Q 9 >Xv.l I J J ^ I {  .J ] B.!.7 6 w m w 3 e t 8 # _ c.b _ n n n <.<.4.5.5.|.E.J / J J t 4 L ",
"a a c q = Z.H.s ! R r.5.4.7.>.2.d L.J ! R ..#. . .O.&.` ;.| | @.I O.{ O.I U U [ I.n g.j.d.j.z.d.j.j.g fXU.c o.u.s...~ o.s.i.h.p.&.7 N M m B P W H i = u.U.3.0.w.g.4.8.,.>.>.b u.$._ K k ] J 9 ! ",
"e e t e Z F.H.8 w d H d b a j u < ~ q * d s 8 w m w G r | S D 5 r L I I U ^  .v A.c b 9.6.2.2.0.y.0.T gXa.x ! a.p.a.s.~ u.i.Q [ &.  % 8 w 8 e 9 $ 8 = E b.i.f.w.w.>.:.h :.7.n u._ q q ^ H d B c ",
";X%X%XaXdXdXuX;.^.G.-.-.H.[.D.W._.:X3X#.!.H.*X(.} ;.-.;.(./ C ^  .G U I J / / k R.^ v v _ v K ( Z.x.B.cX].U @.&.Z.J.F.B.p.p.o.E.kX^.;.$.@.{ ` @./ ^ ^ +XL.T 5.y.3.T >.2.h T P ( J > x v k p q x ",
"D ' | D ' D | =.=.O.| -XvX;.^ H.[.2XyX1X%X].(.6XaX-XsXrX6X=X,X<X:X[.X.$.`.;./ =XkX9X<X/ E.5X,XX.T.Z.H.[.J.H.G.H.G. .A.p.E.o.`.<X5X3XiX,X:XlXmX*X=X,X1XlXfXXX4XgX&X4XXX&XXXP.R.E.wXG.$.v.S.S.S.$.",
"M C M M ' ' M Z ' M 6 @.9X: 8 0 B L L m L L 7 /.=.5 w k L J G H P  .H e e t I @.^ x L t l S.&.w U k s q H P s x d d a g u v v v f i a i N 8 yXU l k 4 x H d Y T V ~ V B Y K U U  ...! P H D.,Xk ",
"M M M ' M M Z | ' | M S 3Xl U  .+.O.' L ` ` D -.l } U J ^  .o.) ) [ ! N  .U o.^ ! X.p.x.( @.F.m G (  .a...o.x.A.c.a.t.i.f.f.c.i.f.d.t.t.~ = <X#.L ^ J s H x d c Y d W B d ! H H J p f Y p J S.X ",
"o z F A S A l S z 5 o =.=X: 0 L L G Z D L r X *.5 J J G k J ( K v x x v ! p H E Q 9.) H L N *.w w w  .U 8 U { G q s i N v c c _ T d.t.T B = _.U x J e 8 H ! c 9 N 9 d P s Y H P H d Y f H  .} X ",
";.;X+XoX/.1XoX;XaX;X;XaXpXY.H.G.;.G.;.O.{ O.J.rXG.-.H.H.OXT.).@X#X+XR.E.L.E.L...~ a R p.p.*XtX%XH.Z.@.{ #.X.U -.#.F.A.Z.c.o.H H g E ~ W ! H 7XH.U o.! Y J H H q H H a f f N d q e q e f H L S.S ",
"= H G G 8 F.I C C C D M M | L O.J 9X@.C U ` {.G.U L P G 2XT.$.o.x.c.A.A.A.H.x.x.@Xq ..F.A.&.!.&.F.s.Z.yX[.X.H.D.#.p.F.A.&XP._.L.#X X@X'.Z.).[.).!.P.L.&X.XW.E.x.x.L.c.c.D.D.Z.G.;.R.Z.G.-.Z.xX-X",
"9 f H H = J.@.z C C S ' M M m w % J.0 J P ` w t s P G N ,X} ( x.u.u.a.a.X. .^  .H.U X.L P ` O.N P ] t `./ k J 8 $ 8 , q t e B 3 A.( K / ( Z G t s f i p.( x v x K K R K R k : /.Y.X.O.{  .D @.Z "
};
